<?xml version="1.0" encoding="UTF-8"?>
<svg width="18px" height="17px" viewBox="0 0 18 17" version="1.1" xmlns="http://www.w3.org/2000/svg" xmlns:xlink="http://www.w3.org/1999/xlink">
    <!-- Generator: Sketch 53.2 (72643) - https://sketchapp.com -->
    <title>favourites</title>
    <desc>Created with Sketch.</desc>
    <g id="Page-1" stroke="none" stroke-width="1" fill="none" fill-rule="evenodd">
        <g id="1440" transform="translate(-625.000000, -749.000000)">
            <g id="favourites" transform="translate(622.000000, 745.000000)">
                <rect id="Rectangle" x="0" y="0" width="24" height="24"></rect>
                <path d="M16.7420534,4.16543174 C14.7143137,3.98889067 13.4425742,4.89508087 12.736661,5.56885231 C12.4400522,5.85148 12.1990086,6.191605 11.9986607,6.55197555 C11.7990955,6.191605 11.5580519,5.85148 11.2622257,5.56885231 C10.5547473,4.89508087 9.29005125,3.83988352 7.25683326,4.0204737 C5.25805007,4.19863442 3.65135395,5.70733178 3.16300598,7.86469612 C1.77544035,13.9942347 9.63439917,19.4694375 12.0463999,21 C14.4591832,19.4694375 22.2234463,14.0671186 20.8350981,7.93677022 C20.3467501,5.77940589 18.740054,4.34359246 16.7420534,4.16543174 Z" id="Fill-1" fill="#000000"></path>
            </g>
        </g>
    </g>
</svg>