<?xml version="1.0" encoding="UTF-8"?>
<svg width="21px" height="21px" viewBox="0 0 21 21" version="1.1" xmlns="http://www.w3.org/2000/svg" xmlns:xlink="http://www.w3.org/1999/xlink">
    <!-- Generator: Sketch 53.2 (72643) - https://sketchapp.com -->
    <title>search</title>
    <desc>Created with Sketch.</desc>
    <g id="Page-1" stroke="none" stroke-width="1" fill="none" fill-rule="evenodd">
        <g id="375" transform="translate(-186.000000, -29.000000)">
            <g id="search" transform="translate(185.000000, 28.000000)">
                <rect id="Rectangle" x="0" y="0" width="24" height="24"></rect>
                <path d="M21.71,20.29 L17.17,15.75 C19.9649854,12.2032883 19.5115748,7.09280016 16.1358226,4.09356615 C12.7600705,1.09433214 7.63173987,1.2456445 4.43869219,4.43869219 C1.2456445,7.63173987 1.09433214,12.7600705 4.09356615,16.1358226 C7.09280016,19.5115748 12.2032883,19.9649854 15.75,17.17 L20.29,21.71 C20.4777666,21.8993127 20.7333625,22.0057983 21,22.0057983 C21.2666375,22.0057983 21.5222334,21.8993127 21.71,21.71 C21.8993127,21.5222334 22.0057983,21.2666375 22.0057983,21 C22.0057983,20.7333625 21.8993127,20.4777666 21.71,20.29 Z M4,10.5 C4,6.91014913 6.91014913,4 10.5,4 C14.0898509,4 17,6.91014913 17,10.5 C17,14.0898509 14.0898509,17 10.5,17 C6.91243253,16.9944934 4.00550664,14.0875675 4,10.5 Z" id="Shape" fill="#000000" fill-rule="nonzero"></path>
            </g>
        </g>
    </g>
</svg>